# xmcd
#
# Track frame offsets:
#	150
#	20776
#	41751
#	63987
#	76131
#	90201
#	105443
#	122111
#	139814
#	158091
#	177784
#	196380
#	209316
#	221053
#	233799
#	251668
#	264132
#	280520
#	294332
#
# Disc length: 4021 seconds
#
# Revision: 1
# Processed by: cddbd v1.5.2PL0 Copyright (c) Steve Scherf et al.
# Submitted via: audiograbber 1.83.01
#
DISCID=030fb313
DTITLE=The Beatles - Demos and Outtakes
DYEAR=1900
DGENRE=Rock
TTITLE0=Free As A Bird
TTITLE1=Helter Skelter (Take 2)
TTITLE2=A Day In The Life
TTITLE3=Hey Jude (Rehearsal)
TTITLE4=Lucy in the Sky with Diamonds (Takes 6, 7 and 8)
TTITLE5=While My Guitar Gently Weeps
TTITLE6=Come Together (Take 1)
TTITLE7=Let It Be
TTITLE8=I Am the Walrus (Take 16)
TTITLE9=Yer Blues (Backyard)
TTITLE10=Sexy Sadie (Take 6)
TTITLE11=Magical Mystery Tour
TTITLE12=Strawberry Fields Forever (Take 1)
TTITLE13=The Fool On the Hill (Demo) [Mono]
TTITLE14=Working Class Hero
TTITLE15=While My Guitar Gently Weeps (Demo)
TTITLE16=Yer Blues
TTITLE17=Your Mother Should Know (Take 27)
TTITLE18=Raunchy
EXTD=
EXTT0=
EXTT1=
EXTT2=
EXTT3=
EXTT4=
EXTT5=
EXTT6=
EXTT7=
EXTT8=
EXTT9=
EXTT10=
EXTT11=
EXTT12=
EXTT13=
EXTT14=
EXTT15=
EXTT16=
EXTT17=
EXTT18=
PLAYORDER=
